<mxfile host="Electron" agent="Mozilla/5.0 (Windows NT 10.0; Win64; x64) AppleWebKit/537.36 (KHTML, like Gecko) draw.io/25.0.2 Chrome/128.0.6613.186 Electron/32.2.5 Safari/537.36" version="25.0.2">
  <diagram name="Page-1" id="k48igsw9lgZ8jny0Mcx8">
    <mxGraphModel dx="780" dy="504" grid="0" gridSize="10" guides="1" tooltips="1" connect="1" arrows="1" fold="1" page="1" pageScale="1" pageWidth="850" pageHeight="1100" math="0" shadow="0">
      <root>
        <mxCell id="0" />
        <mxCell id="1" parent="0" />
        <mxCell id="2wM6vroNu5j19dbeasZu-1" value="+ Teacher" style="swimlane;fontStyle=1;align=center;verticalAlign=top;childLayout=stackLayout;horizontal=1;startSize=26;horizontalStack=0;resizeParent=1;resizeParentMax=0;resizeLast=0;collapsible=1;marginBottom=0;whiteSpace=wrap;html=1;" parent="1" vertex="1">
          <mxGeometry x="29" y="158" width="300" height="160" as="geometry" />
        </mxCell>
        <mxCell id="2wM6vroNu5j19dbeasZu-2" value="&amp;nbsp; firstName: String&lt;div&gt;&amp;nbsp; lastName: String&lt;/div&gt;&lt;div&gt;&amp;nbsp; ID: int&lt;/div&gt;&lt;div&gt;&amp;nbsp; articleList: Set&amp;lt;Article&amp;gt;&lt;/div&gt;" style="text;strokeColor=none;fillColor=none;align=left;verticalAlign=top;spacingLeft=4;spacingRight=4;overflow=hidden;rotatable=0;points=[[0,0.5],[1,0.5]];portConstraint=eastwest;whiteSpace=wrap;html=1;" parent="2wM6vroNu5j19dbeasZu-1" vertex="1">
          <mxGeometry y="26" width="300" height="64" as="geometry" />
        </mxCell>
        <mxCell id="2wM6vroNu5j19dbeasZu-3" value="" style="line;strokeWidth=1;fillColor=none;align=left;verticalAlign=middle;spacingTop=-1;spacingLeft=3;spacingRight=3;rotatable=0;labelPosition=right;points=[];portConstraint=eastwest;strokeColor=inherit;" parent="2wM6vroNu5j19dbeasZu-1" vertex="1">
          <mxGeometry y="90" width="300" height="8" as="geometry" />
        </mxCell>
        <mxCell id="2wM6vroNu5j19dbeasZu-4" value="+ Teacher(firstName: String, lastName: String, ID: int)&lt;div&gt;+ addArticle(article: Article)&lt;/div&gt;&lt;div&gt;+ removeArticle(article: Article)&lt;/div&gt;" style="text;strokeColor=none;fillColor=none;align=left;verticalAlign=top;spacingLeft=4;spacingRight=4;overflow=hidden;rotatable=0;points=[[0,0.5],[1,0.5]];portConstraint=eastwest;whiteSpace=wrap;html=1;" parent="2wM6vroNu5j19dbeasZu-1" vertex="1">
          <mxGeometry y="98" width="300" height="62" as="geometry" />
        </mxCell>
        <mxCell id="2wM6vroNu5j19dbeasZu-5" value="+ Article" style="swimlane;fontStyle=1;align=center;verticalAlign=top;childLayout=stackLayout;horizontal=1;startSize=26;horizontalStack=0;resizeParent=1;resizeParentMax=0;resizeLast=0;collapsible=1;marginBottom=0;whiteSpace=wrap;html=1;" parent="1" vertex="1">
          <mxGeometry x="451" y="157" width="368" height="161" as="geometry" />
        </mxCell>
        <mxCell id="2wM6vroNu5j19dbeasZu-6" value="&amp;nbsp;title: String&lt;div&gt;&amp;nbsp;description: String&lt;/div&gt;&lt;div&gt;&amp;nbsp;writerList: Set&amp;lt;Teacher&amp;gt;&lt;br&gt;&lt;div&gt;&lt;br&gt;&lt;/div&gt;&lt;/div&gt;" style="text;strokeColor=none;fillColor=none;align=left;verticalAlign=top;spacingLeft=4;spacingRight=4;overflow=hidden;rotatable=0;points=[[0,0.5],[1,0.5]];portConstraint=eastwest;whiteSpace=wrap;html=1;" parent="2wM6vroNu5j19dbeasZu-5" vertex="1">
          <mxGeometry y="26" width="368" height="48" as="geometry" />
        </mxCell>
        <mxCell id="2wM6vroNu5j19dbeasZu-7" value="" style="line;strokeWidth=1;fillColor=none;align=left;verticalAlign=middle;spacingTop=-1;spacingLeft=3;spacingRight=3;rotatable=0;labelPosition=right;points=[];portConstraint=eastwest;strokeColor=inherit;" parent="2wM6vroNu5j19dbeasZu-5" vertex="1">
          <mxGeometry y="74" width="368" height="8" as="geometry" />
        </mxCell>
        <mxCell id="2wM6vroNu5j19dbeasZu-8" value="+ Article(title: String, description: String, writerList Set&amp;lt;Teacher&amp;gt;)&lt;div&gt;+ cancelArticle()&lt;br&gt;&lt;div&gt;&lt;div&gt;&lt;span style=&quot;background-color: initial;&quot;&gt;+ addTeacher(teacher: Teacher)&lt;/span&gt;&lt;/div&gt;&lt;/div&gt;&lt;div&gt;&lt;span style=&quot;background-color: initial;&quot;&gt;+ removeTeacher(teacher: Teacher)&lt;/span&gt;&lt;/div&gt;&lt;/div&gt;" style="text;strokeColor=none;fillColor=none;align=left;verticalAlign=top;spacingLeft=4;spacingRight=4;overflow=hidden;rotatable=0;points=[[0,0.5],[1,0.5]];portConstraint=eastwest;whiteSpace=wrap;html=1;" parent="2wM6vroNu5j19dbeasZu-5" vertex="1">
          <mxGeometry y="82" width="368" height="79" as="geometry" />
        </mxCell>
        <mxCell id="2wM6vroNu5j19dbeasZu-10" value="" style="line;strokeWidth=1;fillColor=none;align=left;verticalAlign=middle;spacingTop=-1;spacingLeft=3;spacingRight=3;rotatable=0;labelPosition=right;points=[];portConstraint=eastwest;strokeColor=inherit;" parent="1" vertex="1">
          <mxGeometry x="329" y="227" width="122" height="9" as="geometry" />
        </mxCell>
        <mxCell id="2wM6vroNu5j19dbeasZu-11" value="0..*" style="text;align=center;fontStyle=0;verticalAlign=middle;spacingLeft=3;spacingRight=3;strokeColor=none;rotatable=0;points=[[0,0.5],[1,0.5]];portConstraint=eastwest;html=1;" parent="1" vertex="1">
          <mxGeometry x="331" y="211" width="25" height="16" as="geometry" />
        </mxCell>
        <mxCell id="2wM6vroNu5j19dbeasZu-12" value="1..*" style="text;align=center;fontStyle=0;verticalAlign=middle;spacingLeft=3;spacingRight=3;strokeColor=none;rotatable=0;points=[[0,0.5],[1,0.5]];portConstraint=eastwest;html=1;" parent="1" vertex="1">
          <mxGeometry x="425" y="211" width="25" height="16" as="geometry" />
        </mxCell>
        <mxCell id="2wM6vroNu5j19dbeasZu-13" value="write" style="text;align=center;fontStyle=0;verticalAlign=middle;spacingLeft=3;spacingRight=3;strokeColor=none;rotatable=0;points=[[0,0.5],[1,0.5]];portConstraint=eastwest;html=1;" parent="1" vertex="1">
          <mxGeometry x="369" y="236" width="42" height="16" as="geometry" />
        </mxCell>
      </root>
    </mxGraphModel>
  </diagram>
</mxfile>
